<svg id="Ebene_1" data-name="Ebene 1" xmlns="http://www.w3.org/2000/svg" viewBox="0 0 880 880"><defs><style>.cls-1{fill:#ffba03;}.cls-2{fill:none;stroke:#000;stroke-linecap:round;stroke-miterlimit:10;stroke-width:30px;}</style></defs><title>icon_problem_supplychain</title><path class="cls-1" d="M853.36,796H26.64A26.6,26.6,0,0,1,4.11,755.24L417.47,96.49a26.6,26.6,0,0,1,45.05,0L875.89,755.24A26.6,26.6,0,0,1,853.36,796Z"/><g id="Route"><path class="cls-2" d="M372.86,463.45H540.74a62.31,62.31,0,0,1,62.31,62.31v1.73a62.31,62.31,0,0,1-62.31,62.31H488.82"/><line class="cls-2" x1="465.26" y1="536.84" x2="360.06" y2="642.04"/><line class="cls-2" x1="360.06" y1="536.84" x2="465.26" y2="642.04"/><path class="cls-2" d="M680.07,717H255.61A63.6,63.6,0,0,1,192,653.4h0a63.6,63.6,0,0,1,63.6-63.6h80"/><path d="M377.41,443.38a6.72,6.72,0,0,1-9.1,0c-9.89-9.09-32.44-30.33-32.44-34.79V352.12A7.16,7.16,0,0,1,343,345h59.72a7.16,7.16,0,0,1,7.13,7.13v56.47C409.86,413,387.3,434.29,377.41,443.38Z"/><path d="M684.62,696.41a6.72,6.72,0,0,1-9.1,0c-9.89-9.09-32.44-30.33-32.44-34.79V605.15a7.16,7.16,0,0,1,7.13-7.13h59.72a7.16,7.16,0,0,1,7.13,7.13v56.47C717.06,666.08,694.51,687.31,684.62,696.41Z"/></g></svg>