<?xml version="1.0" encoding="utf-8"?>
<!-- Generator: Adobe Illustrator 19.2.1, SVG Export Plug-In . SVG Version: 6.00 Build 0)  -->
<svg version="1.1" id="Ebene_1" xmlns="http://www.w3.org/2000/svg" xmlns:xlink="http://www.w3.org/1999/xlink" x="0px" y="0px"
	 viewBox="0 0 880 880" style="enable-background:new 0 0 880 880;" xml:space="preserve">
<style type="text/css">
	.st0{fill:#0677FF;}
	.st1{display:none;}
	.st2{display:inline;fill:#FF0218;}
	.st3{display:inline;fill:#FFFFFF;}
	.st4{display:inline;}
	.st5{fill:#FFFFFF;}
	.st6{display:inline;fill:none;stroke:#FFFFFF;stroke-width:30;stroke-miterlimit:10;}
</style>
<g>
	<path class="st0" d="M464.5,871.3c-15.5,11.6-36.8,11.6-52.2-0.1c-68.7-52.1-254.1-193-316.8-244.3C82.2,616,74.4,608.1,74.4,586
		c0-22.1,0-547,0-547c0-21.4,18.7-39,41.5-39H764c22.8,0,41.5,17.5,41.5,39c0,0,0,520.9,0,547.5s-8,29.6-21.6,40.6
		C720.3,678.7,533.6,819.4,464.5,871.3z"/>
</g>
<g class="st1">
	<path class="st2" d="M438.5,865c-6.2,0-12.1-2-17.1-5.8c-74.5-56.5-254.5-193.4-316.4-244c-11.6-9.5-15.6-13.5-15.6-29.3V39
		c0-13.2,11.9-24,26.5-24H764c14.6,0,26.5,10.8,26.5,24v547.5c0,8.3-0.9,13.8-2.6,17c-1.4,2.5-4.1,4.7-9,8.5
		c-1.4,1.1-2.9,2.3-4.4,3.5c-62.8,50.8-244,187.4-319,243.8C450.6,863,444.7,865,438.5,865z"/>
	<path class="st3" d="M764,30c6.1,0,11.5,4.2,11.5,9v547.5c0,5.8-0.5,8.5-0.7,9.5c-1,1-3.4,2.8-5.1,4.2c-1.4,1.1-3,2.3-4.6,3.7
		C702.5,654.5,521.4,791,446.5,847.3c-2.9,2.2-6,2.7-8,2.7c-2,0-5.1-0.5-8-2.7C356,790.8,176.2,654.1,114.5,603.7
		c-3.8-3.1-7.5-6.3-8.7-8.3c-1.2-2-1.4-6.7-1.4-9.4V39c0-4.8,5.4-9,11.5-9H764 M764,0H116C93.1,0,74.4,17.5,74.4,39
		c0,0,0,524.9,0,547s7.8,30,21.1,40.9c62.7,51.3,248.1,192.2,316.8,244.3c7.7,5.9,16.9,8.8,26.2,8.8c9.2,0,18.3-2.9,26-8.7
		c69.1-52,255.8-192.6,319.4-244.2c13.6-11,21.6-14,21.6-40.6s0-547.5,0-547.5C805.6,17.5,786.9,0,764,0L764,0z"/>
</g>
<g id="Strike" class="st1">
	<path class="st3" d="M649.1,338l-303-26.9c-3.7-0.3-6.5-3.6-6.2-7.4l14-156.9c0.3-3.7,3.6-6.5,7.4-6.2l303,26.9
		c3.7,0.3,6.5,3.6,6.2,7.4l-14,156.9C656.1,335.6,652.8,338.3,649.1,338z"/>
	<path class="st3" d="M470.1,432.6l14.7-165c0.3-3.3,3.3-5.8,6.6-5.5l15.5,1.4c3.3,0.3,5.8,3.3,5.5,6.6l-14.7,165
		c-0.3,3.3-3.3,5.8-6.6,5.5l-15.5-1.4C472.3,438.9,469.8,436,470.1,432.6z"/>
	<circle class="st3" cx="637.9" cy="440" r="52.5"/>
	<path class="st3" d="M520.2,531.9L470.6,446c-1.7-2.9-0.7-6.7,2.2-8.3l15.7-9c2.9-1.7,6.7-0.7,8.3,2.2l49.6,85.9
		c1.7,2.9,0.7,6.7-2.2,8.3l-15.7,9C525.6,535.9,521.9,534.9,520.2,531.9z"/>
	<path class="st3" d="M534.5,481.9l80.2,58.3c2.7,2,3.3,5.8,1.4,8.5l-25.5,35.1c-2,2.7-5.8,3.3-8.5,1.4l-80.2-58.3
		c-2.7-2-3.3-5.8-1.4-8.5l25.5-35.1C528,480.5,531.8,479.9,534.5,481.9z"/>
	<path class="st3" d="M562,688V531.4c0-7.9,6.5-14.4,14.4-14.4h105.4c7.9,0,14.4,6.5,14.4,14.4v69.3c0,3.7-123.5,92.5-123.5,92.5
		c-4.1,3-10.3,0.6-10.8-4.5C562,688.5,562,688.2,562,688z"/>
	<path class="st3" d="M492.3,455.6h-16c-6.6,0-12-5.4-12-12v-28.5c0-6.6,5.4-12,12-12h16c6.6,0,12,5.4,12,12v28.5
		C504.3,450.2,498.9,455.6,492.3,455.6z"/>
	<path class="st3" d="M342.6,480.5l-9.8-110.6c-0.3-3.7-3.6-6.5-7.4-6.2l-5.9,0.5c-3.7,0.3-6.5,3.6-6.2,7.4l9.8,110.6
		c0.3,3.7,3.6,6.5,7.4,6.2l5.9-0.5C340.1,487.5,342.9,484.2,342.6,480.5z"/>
	<circle class="st3" cx="225.2" cy="488.1" r="36.8"/>
	<path class="st3" d="M308.6,551l32.9-57c1.7-2.9,0.7-6.7-2.2-8.3l-7.8-4.5c-2.9-1.7-6.7-0.7-8.3,2.2l-32.9,57
		c-1.7,2.9-0.7,6.7,2.2,8.3l7.8,4.5C303.2,554.9,306.9,553.9,308.6,551z"/>
	<path class="st3" d="M300,514.7l-53.2,38.7c-2.7,2-3.3,5.8-1.4,8.5l15.7,21.6c2,2.7,5.8,3.3,8.5,1.4l53.2-38.7
		c2.7-2,3.3-5.8,1.4-8.5L308.6,516C306.6,513.3,302.7,512.7,300,514.7z"/>
	<path class="st3" d="M278.4,661.9V552.2c0-5.6-4.6-10.1-10.1-10.1h-73.9c-5.6,0-10.1,4.6-10.1,10.1v48.6c0,2.6,86.5,64.8,86.5,64.8
		c2.9,2.1,7.2,0.4,7.6-3.1C278.4,662.3,278.4,662.1,278.4,661.9z"/>
	<path class="st3" d="M332.2,499.1h1.4c7.3,0,13.3-6,13.3-13.3v-10.1c0-7.3-6-13.3-13.3-13.3h-1.4c-7.3,0-13.3,6-13.3,13.3v10.1
		C318.8,493.1,324.8,499.1,332.2,499.1z"/>
	<path class="st3" d="M434.4,337.4l-109.8-8.6c-3.7-0.3-6.5-3.6-6.2-7.4l3.2-43.2l-108.5,11c-3.7,0.3-6.5,3.6-6.2,7.4l9.4,105.9
		c0.3,3.7,3.6,6.5,7.4,6.2l208.3-18.5c3.7-0.3,6.5-3.6,6.2-7.4L434.4,337.4z"/>
</g>
<g id="Dismissed" class="st1">
	<g class="st4">
		<g>
			<path class="st5" d="M415.3,472.6H275.5c-3.3,0-6.5-0.5-9.6-1.3v65.5c0,13.6,11,24.7,24.7,24.7h299.7c13.6,0,24.7-11,24.7-24.7
				v-65.5c-3,0.8-6.2,1.3-9.6,1.3H465.6c0,0.2,0,0.4,0,0.6v15.1c0,7-5.7,12.6-12.6,12.6h-25.1c-7,0-12.6-5.7-12.6-12.6v-15.1
				C415.3,473,415.3,472.8,415.3,472.6z"/>
			<path class="st5" d="M638.2,286.3c21.6-18.5,43.5-48.9,37.9-93.8c-0.3-2.6-4-3-4.8-0.4c-3.9,12.1-13,29.2-34.2,29.2
				c-32.8,0-27.1-38.8-8.6-58.2c16-16.8,25.1-44.5,14.8-66.4c-1.1-2.3-4.6-1.6-4.7,1c-0.4,15-10.6,43.7-72.7,69.8
				c-5.9,2.5-11.3,5.4-16.4,8.4c-4.9,3-11.2-0.5-11.2-6.3c0-6.4,1-13.2,3.8-19.5c0.9-1.9-0.9-4-2.9-3.4c-12.8,3.8-44,16.5-52.3,51.8
				h11.2c22.1,0,40.1,18,40.1,40.1v24.9h65.7C619.3,263.6,632.6,273,638.2,286.3z"/>
			<path class="st5" d="M523.4,263.6v-24.9c0-14-11.4-25.3-25.3-25.3h-13.1H382.8c-14,0-25.3,11.4-25.3,25.3v24.9h25.4v-24.9h104.3
				H498v24.9L523.4,263.6L523.4,263.6z"/>
			<path class="st5" d="M628.6,436.9v-136c0-2.2-0.3-4.3-0.8-6.4c-2.8-10.5-12.4-18.3-23.8-18.3h-65.7h-7.4h-7.4H498h-7.4h-4.2h-3.2
				h-85.5h-7.4h-7.4h-25.4h-7.4h-7.4h-67.3c-12.8,0-23.1,10.4-23.1,23.1v137.5c0,9.4,5.6,17.4,13.6,21.1c2.9,1.3,6.1,2.1,9.6,2.1
				h330c3.4,0,6.6-0.7,9.6-2.1C623,454.3,628.6,446.2,628.6,436.9z"/>
		</g>
	</g>
</g>
<g id="Acquisition" class="st1">
	<path class="st3" d="M387.7,352.2l160.5-120c-36.5-48.8-94.8-80.4-160.5-80.4c-110.7,0-200.4,89.7-200.4,200.4
		S277,552.6,387.7,552.6c67.2,0,126.7-33.1,163.1-83.9L387.7,352.2z"/>
	<circle class="st3" cx="640" cy="352.2" r="53.7"/>
</g>
<g id="Fusion" class="st1">
	<path class="st3" d="M371.1,352.9c0-56.1,26.9-105.9,68.5-137.3c-28.7-21.7-64.5-34.5-103.3-34.5c-94.9,0-171.8,76.9-171.8,171.8
		s76.9,171.8,171.8,171.8c38.8,0,74.5-12.8,103.3-34.5C398,458.8,371.1,409,371.1,352.9z"/>
	<path class="st3" d="M542.9,181.1c-38.8,0-74.5,12.8-103.3,34.5c41.6,31.3,68.5,81.2,68.5,137.3s-26.9,105.9-68.5,137.3
		c28.7,21.7,64.5,34.5,103.3,34.5c94.9,0,171.8-76.9,171.8-171.8S637.7,181.1,542.9,181.1z"/>
</g>
<g id="SpinOff" class="st1">
	<circle class="st3" cx="310.3" cy="510.3" r="130.7"/>
	<g class="st4">
		<path class="st5" d="M183.6,530.6c0,0-0.5-1.9-1.1-5.4c-0.6-3.5-1.3-8.7-1.9-15.4c-0.5-6.7-0.8-14.8-0.4-24.2
			c0.3-9.4,1.4-19.9,3.4-31.3c2-11.4,5-23.6,9.3-36.2c4.3-12.6,9.8-25.6,16.7-38.4c6.9-12.8,15.1-25.6,24.4-37.7
			c1.2-1.5,2.3-3.1,3.5-4.6c1.2-1.5,2.4-3,3.7-4.5c2.5-3,4.9-6,7.6-8.8l3.9-4.3l2-2.2l0.2-0.3l0.1-0.1c0.1-0.1,0,0,0.2-0.2l0.5-0.5
			l1-1c2.7-2.7,5.3-5.4,8-8.2c2.9-2.7,5.8-5.4,8.7-8.1c2.9-2.6,5.9-5.1,8.9-7.7c6-4.9,12.2-9.7,18.5-14.2
			c12.6-8.9,25.8-16.8,39-23.4c13.2-6.7,26.4-12.3,39.2-16.8c12.8-4.5,25.2-8.1,36.7-10.8c23.1-5.5,42.9-7.7,56.9-8.7
			c14-0.9,22.2-0.5,22.7-0.5c8.3,0.6,14.4,7.9,13.8,16.1c-0.6,8.3-7.9,14.4-16.1,13.8c0.2,0-1.4-0.2-4.7-0.4
			c-3.3-0.2-8.2-0.4-14.6-0.4c-12.7,0.1-31.1,1-52.8,4.8c-21.7,3.7-46.8,10.4-72.2,21.4c-12.7,5.5-25.5,12.1-37.9,19.7
			c-6.2,3.8-12.3,8-18.3,12.3c-2.9,2.2-6,4.4-8.8,6.7c-2.8,2.3-5.7,4.6-8.5,7c-2.8,2.5-5.7,5.1-8.5,7.6l-1.1,1l-0.5,0.5l-0.4,0.4
			l-2,2l-4,3.9c-2.7,2.6-5.2,5.3-7.7,8c-1.3,1.4-2.6,2.7-3.8,4.1c-1.2,1.4-2.4,2.8-3.6,4.2c-9.6,11.1-18.2,22.8-25.6,34.8
			c-7.4,12-13.5,24.1-18.4,36.1c-4.9,12-8.6,23.7-11.2,34.7c-2.7,11-4.3,21.3-5.2,30.5c-0.9,9.2-1.1,17.3-1.1,23.9
			c0.1,6.7,0.5,11.9,0.9,15.4C183.2,528.7,183.6,530.6,183.6,530.6z"/>
	</g>
	<circle class="st3" cx="647.2" cy="239.9" r="48.9"/>
	<path class="st3" d="M480.6,224.6l-11.2-40.4l75.3,43c2.9,1.6,2.9,5.8,0,7.4l-74.9,43.7l10.8-40.2
		C481.8,233.7,481.8,229,480.6,224.6z"/>
</g>
<g id="Insolvence" class="st1">
	<g class="st4">
		<path class="st5" d="M440,146.1c31.1,0,61.4,5.9,90,17.5c29.7,12,56.3,29.7,79.1,52.6c22.8,22.8,40.5,49.5,52.6,79.1
			c11.6,28.7,17.5,59,17.5,90s-5.9,61.4-17.5,90c-12,29.7-29.7,56.3-52.6,79.1S559.7,595,530,607.1c-28.7,11.6-59,17.5-90,17.5
			s-61.4-5.9-90-17.5c-29.7-12-56.3-29.7-79.1-52.6c-22.8-22.8-40.5-49.5-52.6-79.1c-11.6-28.7-17.5-59-17.5-90s5.9-61.4,17.5-90
			c12-29.7,29.7-56.3,52.6-79.1c22.8-22.8,49.5-40.5,79.1-52.6C378.6,152,408.9,146.1,440,146.1 M440,116.1
			c-68.9,0-137.8,26.3-190.4,78.9c-105.1,105.1-105.1,275.6,0,380.8c52.6,52.6,121.5,78.9,190.4,78.9s137.8-26.3,190.4-78.9
			c105.1-105.1,105.1-275.6,0-380.8C577.8,142.4,508.9,116.1,440,116.1L440,116.1z"/>
	</g>
	<line class="st6" x1="259.8" y1="205.1" x2="614" y2="559.3"/>
	<g class="st4">
		<path class="st5" d="M302.4,395.7c-1.2,3.4-1.9,6.9-1.9,10.5c0,32.1,50,58.3,113.1,60.5c-1.2-6.5-1.9-13.2-1.9-20
			c0-3.5,0.2-7,0.5-10.5C362.8,434.3,321.7,418.5,302.4,395.7z"/>
		<path class="st5" d="M472.8,358.8l137.9,137.9c8.4-14.8,13.3-31.9,13.3-50.1c0-55.8-45.3-101.1-101.1-101.1
			C504.6,345.5,487.5,350.3,472.8,358.8z"/>
		<path class="st5" d="M421.7,507.3c2.6,0,5.3-0.1,7.9-0.2c-6-9.3-10.7-19.5-13.7-30.3c-51.1-1.2-93.7-17.2-113.5-40.6
			c-1.2,3.4-1.9,6.9-1.9,10.5C300.4,480.1,354.7,507.3,421.7,507.3z"/>
		<path class="st5" d="M302.4,314.8c-1.2,3.4-1.9,6.9-1.9,10.5c0,25.1,30.6,46.7,74.2,55.9l-46.1-46.1
			C317.7,329.3,308.8,322.4,302.4,314.8z"/>
		<path class="st5" d="M456.9,342.9c49.8-7.5,86.2-30.7,86.2-58.1c0-33.5-54.3-60.7-121.3-60.7c-26.9,0-51.7,4.4-71.8,11.8
			L456.9,342.9z"/>
		<path class="st5" d="M436.7,516.8c-4.9,0.3-9.8,0.6-14.9,0.6c-53.7,0-98.8-16.5-119.4-40.8c-1.2,3.4-1.9,6.9-1.9,10.5
			c0,33.5,54.3,60.7,121.3,60.7c16.3,0,31.9-1.6,46.1-4.6C455.9,536.3,445.3,527.4,436.7,516.8z"/>
		<path class="st5" d="M302.4,355.2c-1.2,3.4-1.9,6.9-1.9,10.5c0,32.1,50,58.3,113.2,60.5c0.3-1.7,0.7-3.3,1.1-4.9l-27.6-27.6
			C349,388.2,318.3,374.1,302.4,355.2z"/>
		<path class="st5" d="M423.2,429.7c-0.9,5.5-1.4,11.1-1.4,16.9c0,55.9,45.2,101.1,101.1,101.1c5.7,0,11.4-0.5,16.9-1.4L423.2,429.7
			z"/>
		<path class="st5" d="M543.1,325.3c0-3.6-0.8-7.1-1.9-10.5c-6.8,8-16.5,15.1-28.1,21.1c3.2-0.3,6.5-0.5,9.8-0.5
			c6.1,0,12,0.6,17.9,1.6C542.2,333.2,543.1,329.3,543.1,325.3z"/>
	</g>
</g>
</svg>
