<?xml version="1.0" encoding="utf-8"?>
<!-- Generator: Adobe Illustrator 19.2.1, SVG Export Plug-In . SVG Version: 6.00 Build 0)  -->
<svg version="1.1" id="Ebene_1" xmlns="http://www.w3.org/2000/svg" xmlns:xlink="http://www.w3.org/1999/xlink" x="0px" y="0px"
	 viewBox="0 0 88 88" style="enable-background:new 0 0 88 88;" xml:space="preserve">
<style type="text/css">
	.st0{fill:#FFFFFF;}
</style>
<g>
	<path class="st0" d="M43.9,57.8c0,0-8.2-8.6-8.2-16.1c0-4.8,3.8-8.6,8.4-8.6c4.6,0,8.3,3.9,8.3,8.7C52.4,49.9,43.9,57.8,43.9,57.8
		L43.9,57.8z M44,19.6c5.4,0,10.5,1.8,14.5,4.8c0.9,0.7,2.2,0.6,3-0.2l0,0c1-1,0.9-2.6-0.2-3.4c-4.8-3.6-10.8-5.8-17.3-5.8
		c-6.5,0-12.5,2.2-17.3,5.8c-1.1,0.8-1.2,2.4-0.2,3.4l0,0c0.8,0.8,2.1,0.9,3,0.2C33.5,21.4,38.6,19.6,44,19.6L44,19.6z M65.6,24.8
		l-1.8,1.8c-0.8,0.8-0.9,2-0.2,3c3,4.1,4.8,9.1,4.8,14.5c0,5.4-1.8,10.5-4.8,14.5c-0.7,0.9-0.6,2.2,0.2,3l0,0c1,1,2.6,0.9,3.4-0.2
		c3.6-4.8,5.8-10.8,5.8-17.3C72.9,36.6,70.1,29.9,65.6,24.8L65.6,24.8z M19.6,44c0-5.4,1.8-10.5,4.8-14.5c0.7-0.9,0.6-2.2-0.2-3l0,0
		c-1-1-2.6-0.9-3.4,0.2c-3.6,4.8-5.8,10.8-5.8,17.3c0,6.5,2.2,12.4,5.8,17.3c0.8,1.1,2.4,1.2,3.4,0.2l0,0c0.8-0.8,0.9-2,0.2-3
		C21.4,54.5,19.6,49.4,19.6,44L19.6,44z M44,68.4c-5.4,0-10.5-1.8-14.5-4.8c-0.9-0.7-2.2-0.6-3,0.2l0,0c-1,1-0.9,2.6,0.2,3.4
		c4.8,3.6,10.8,5.8,17.3,5.8c6.5,0,12.5-2.2,17.3-5.8c1.1-0.8,1.2-2.4,0.2-3.4l0,0c-0.8-0.8-2.1-0.9-3-0.2
		C54.5,66.6,49.4,68.4,44,68.4L44,68.4z M44,68.4"/>
</g>
</svg>
