<?xml version="1.0" encoding="utf-8"?>
<!-- Generator: Adobe Illustrator 19.2.1, SVG Export Plug-In . SVG Version: 6.00 Build 0)  -->
<svg version="1.1" id="Ebene_1" xmlns="http://www.w3.org/2000/svg" xmlns:xlink="http://www.w3.org/1999/xlink" x="0px" y="0px"
	 viewBox="0 0 88 88" style="enable-background:new 0 0 88 88;" xml:space="preserve">
<style type="text/css">
	.st0{fill:#FFFFFF;}
</style>
<path class="st0" d="M49.4,44l17.8-18.5c1.4-1.5,1.4-3.9,0-5.4l0,0L67.1,20c-1.4-1.4-3.7-1.3-5.1,0.1L44.2,38.6L26.3,20.1L26.2,20
	c-1.4-1.4-3.7-1.3-5.1,0.1c-1.4,1.5-1.4,3.9,0,5.4L38.9,44L21.1,62.5c-1.4,1.5-1.4,3.9,0,5.4l0.1,0.1c1.4,1.4,3.7,1.3,5.1-0.1
	l17.8-18.5L62,67.9l0.1,0.1c1.4,1.4,3.7,1.3,5.1-0.1c1.4-1.5,1.4-3.9,0-5.4L49.4,44z"/>
</svg>
