<svg xmlns="http://www.w3.org/2000/svg" width="88" height="88" viewBox="0 0 88 88">
  <defs>
    <style>
      .cls-1 {
        fill: #fff;
        fill-rule: evenodd;
      }
    </style>
  </defs>
  <path id="Arrow" class="cls-1" d="M52.4,67.887L31.127,46.755a3.82,3.82,0,0,1,0-5.429,3.885,3.885,0,0,1,5.467,0L57.866,62.458a3.82,3.82,0,0,1,0,5.429A3.885,3.885,0,0,1,52.4,67.887ZM31.127,46.674a3.82,3.82,0,0,1,0-5.429L52.4,20.113a3.886,3.886,0,0,1,5.467,0,3.82,3.82,0,0,1,0,5.429L36.594,46.674A3.885,3.885,0,0,1,31.127,46.674Z"/>
</svg>
