<?xml version="1.0" encoding="utf-8"?>
<!-- Generator: Adobe Illustrator 19.2.1, SVG Export Plug-In . SVG Version: 6.00 Build 0)  -->
<svg version="1.1" id="Ebene_1" xmlns="http://www.w3.org/2000/svg" xmlns:xlink="http://www.w3.org/1999/xlink" x="0px" y="0px"
	 viewBox="0 0 880 880" style="enable-background:new 0 0 880 880;" xml:space="preserve">
<style type="text/css">
	.st0{display:none;stroke:#FFFFFF;stroke-miterlimit:10;}
	.st1{display:none;}
	.st2{display:inline;fill:#FFFFFF;}
	.st3{fill:#FFFFFF;}
	.st4{display:inline;}
	.st5{display:none;fill:#FFFFFF;}
</style>
<rect class="st0" width="880" height="880"/>
<g id="Traffic_Events" class="st1">
	<path class="st2" d="M710.8,364.8L656.6,224c-10.2-26.7-32.2-50-74-50h-76.9H374.9h-77.8c-41.8,0-64,23.2-74.3,50l-54.7,140.6
		c-21.6,2.8-60.1,28.3-60.1,76.2V619h54v59c0,68,98,68,98,0v-59h179.8h0.1H621v59c0,68,96,68,96,0v-59h53V440.8
		C770,392.8,732.3,367.5,710.8,364.8z M212.9,511.7c-25.4,0-45.9-21.2-45.9-47.4c0-26.1,20.6-47.3,45.9-47.3
		c25.4,0,45.9,21.2,45.9,47.3C258.8,490.5,238.3,511.7,212.9,511.7z M439.8,364h-0.1h-215l41-109.8c5.1-15.5,12.8-26.2,30.7-26.2
		h143.3h0.1h0.1h143.4c17.9,0,25.6,10.7,30.7,26.2L655,364H439.8L439.8,364z M666.9,511.7c-25.4,0-46-21.2-46-47.4
		c0-26.1,20.6-47.3,46-47.3c25.4,0,45.9,21.2,45.9,47.3C712.8,490.5,692.2,511.7,666.9,511.7z"/>
</g>
<g id="Company_Events" class="st1">
	<path class="st2" d="M682.1,122H196.4c-17.1,0-31.1,13.1-31.1,29.2c0,0,0,393.3,0,409.9c0,16.6,5.8,22.5,15.8,30.6
		c47,38.4,185.9,144,237.4,183.1c11.6,8.8,27.5,8.8,39.1,0.1c51.8-38.9,191.7-144.3,239.4-183c10.2-8.3,16.2-10.5,16.2-30.5
		c0-19.9,0-410.3,0-410.3C713.2,135.1,699.2,122,682.1,122z M626.9,451.7c0,21.7-17.6,39.4-39.4,39.4c-21.7,0-39.4-17.6-39.4-39.4
		c0-21.7,17.6-39.4,39.4-39.4C609.2,412.3,626.9,429.9,626.9,451.7z M278.3,460.2c15.2,0,27.6,12.3,27.6,27.6
		c0,15.2-12.3,27.6-27.6,27.6c-15.2,0-27.6-12.3-27.6-27.6C250.7,472.5,263.1,460.2,278.3,460.2z M433.4,414.3l-72.5,6.4l4.5,49.4
		c2.6,1.8,4.5,4.8,4.5,8.2v7.6c0,3.9-2.5,7.3-5.8,9c0,0-0.3,0.1-0.3,0.1l-14.6,25.3l0.9,1.3c2.8,3.8,1.8,9.2-2,12l-30.2,21.9v62.5
		c0,0.1,0.1,0.3,0.1,0.4c-0.3,2.7-3.4,3.9-5.5,2.3c0,0-64.8-46.7-64.8-48.6v-36.4c0-4.2,3.4-7.3,7.6-7.3h50.9l25-18.3
		c1.9-1.4,4.3-2,6.6-1.6l11.4-19.5c-0.3-1-0.3-2-0.3-3v-7.6c0-2.4,0.7-4.6,2.1-6.3l-4.6-49.9l-69,6.1c-2.8,0.2-5.3-1.8-5.5-4.6
		l-7.1-79.4c-0.2-2.8,1.8-5.3,4.6-5.5l81.3-8.3l-2.4,32.4c-0.2,2.8,1.8,5.3,4.6,5.5l82.3,6.4l2.9,34
		C438.2,411.6,436.2,414.1,433.4,414.3z M631.3,572.1c0,2.7-92.7,69.3-92.7,69.3c-3.1,2.3-7.8,0.5-8.2-3.4c0-0.2-0.3-0.4-0.3-0.6
		v-88l-41.5-30.4c-3.8-2.8-4.4-8.2-1.6-12l2.5-3.5L465,461.5c-4.6-2.6-8-7.5-8-13.1V439c0-4.9,2.6-9.2,6.2-12l5.8-63l-100.2-8.9
		c-2.8-0.2-4.9-2.7-4.6-5.5l10.5-117.6c0.2-2.8,2.7-4.9,5.5-4.6l227.1,20.2c2.8,0.2,4.9,2.7,4.6,5.5l-10.4,117.6
		c-0.2,2.8-2.7,4.9-5.5,4.6l-106.1-9.4l-5.6,63.8c2.1,2.6,3.5,5.8,3.5,9.3v9.4c0,1.7-0.5,3.2-1,4.7l17.9,31.3c2.7-1.2,6-1.2,8.6,0.7
		l33,23.6h74.2c6,0,10.8,5.5,10.8,11.4V572.1z"/>
</g>
<g id="Company-Locations" class="st1">
	<path class="st2" d="M457.6,775.1c-11.6,8.7-27.6,8.7-39.1-0.1C367,735.9,228,630.2,181,591.8c-10-8.2-15.8-14.1-15.8-30.7
		c0-16.6,0-410.1,0-410.1c0-16.1,14-29.2,31.1-29.2h485.9c17.1,0,31.1,13.2,31.1,29.2c0,0,0,390.6,0,410.5c0,20-6,22.2-16.2,30.5
		C649.4,630.6,509.5,736.1,457.6,775.1z"/>
</g>
<g id="Air" class="st1">
	<path class="st2" d="M692.6,244.5c24.9-33.3,39.8-68,39.9-92.7c0-8-1.6-14.3-4.7-18.9c-0.3-0.6-1.2-2.1-2.8-3.5
		c-1.5-1.5-2.9-2.4-3.2-2.5c-4.9-3.3-11.2-4.8-19.2-4.8c-24.7,0-59.3,14.9-92.7,39.9c-27,20.2-53.9,48.6-91.3,87.9
		c-6.3,6.7-13,13.7-20,21l-72.3-21.7l0.2-0.2c3-3,4.7-7.2,4.7-11.3c0-4.3-1.7-8.5-4.7-11.5l-13.1-13.1c-3-3-7.2-4.8-11.5-4.8
		c-4.4,0-8.4,1.7-11.5,4.7l-19.5,19.5l-10.3-3.1c2.2-2.8,3.5-6.4,3.4-9.8c0-4.4-1.7-8.5-4.7-11.5L346.2,195c-3-3-7.1-4.7-11.5-4.7
		c-4.3,0-8.4,1.7-11.4,4.7l-17.9,17.9l-73.5-22c-1.6-0.5-3.4-0.7-5.3-0.7c-5.2,0.1-10.1,2-13.6,5.5l-25.8,25.9
		c-2.9,2.9-4.6,6.9-4.5,10.7c-0.1,5.5,3,10.7,7.9,13.3l154.6,86.4c0.8,0.4,2.9,2,3.8,2.9l44.1,44.1c-41.2,43.4-78,85.5-106.6,122.1
		c-2.7,3.4-5.2,6.7-7.7,10L159,500c-0.6-0.1-1.2-0.1-2.1-0.1c-5.5,0.1-10.8,2.3-14.8,6.1l-12.1,12c-3,2.9-4.7,6.9-4.6,10.7
		c-0.1,5.8,3.4,11.2,8.7,13.5l84.1,40c0.7,0.4,2.6,1.7,3.2,2.3l7,6.9c-2.2,6.2-3.3,11.5-3.4,16.2c0,6.3,2,11.6,5.9,15.5l0.3,0.3
		l0.1,0.1c4,3.8,9.1,5.8,15.5,5.8c4.6-0.1,9.9-1.2,16-3.3l7.1,7.1c0.5,0.6,1.9,2.4,2.2,3.2l39.9,84c2.4,5.4,7.7,8.8,13.4,8.8h0.1
		c4,0,7.7-1.6,10.6-4.5l12.3-12.4c3.7-3.9,5.8-9.2,5.9-14.8c0-0.7,0-1.2-0.1-1.5l-10.9-120c3.3-2.5,6.6-5,10-7.7
		c36.6-28.7,78.7-65.4,122.1-106.6l44.1,44.1c0.7,0.7,2.4,2.9,2.9,3.8l86.2,154.3c2.6,5,7.7,8.1,13.3,8.1c4,0,7.8-1.6,10.7-4.5
		l26-26c3.4-3.5,5.3-8.3,5.3-13.6c0-1.8-0.2-3.5-0.7-5.1l-22-73.5l17.9-17.9c3-3,4.7-7.2,4.7-11.4c0-4.3-1.7-8.3-4.7-11.4
		l-13.1-13.1c-3-3-7.2-4.7-11.4-4.7c-3.6,0-7.2,1.2-9.9,3.4l-3.1-10.3l19.6-19.6c3-3,4.7-7.2,4.7-11.5c0-4.3-1.7-8.4-4.7-11.4
		L628.3,428c-3-3.1-7.2-4.8-11.5-4.8c-4.3,0-8.5,1.8-11.5,4.8l-0.1,0.1l-21.7-72.3c7.5-7.1,14.6-13.9,21.4-20.3
		C644.1,298.3,672.4,271.4,692.6,244.5z"/>
</g>
<g id="Rail">
	<g>
		<path class="st3" d="M683.5,692.7L594.1,530c25.3-4,44-26.7,44-52V238c0-64-52-116-116-116h-152c-64,0-117.4,52-117.4,117.3V478
			c0,26.7,18.7,48,44,52l-88,162.7c-6.7,13.4-2.7,29.4,10.6,36c4,2.7,8,2.7,12.1,2.7c9.3,0,18.7-5.4,22.7-13.3l8-13.4h368l8,13.4
			c5.4,9.3,13.4,13.3,22.7,13.3c4,0,8-1.3,12-2.7C686.1,722.1,690.1,706,683.5,692.7L683.5,692.7z M558.1,572.7h-224l22.7-41.3
			h178.7L558.1,572.7z M554.1,483.4c-21.4,0-38.7-17.3-38.7-38.7c0-21.4,17.3-38.7,38.7-38.7s38.7,17.3,38.7,38.7
			C592.8,464.7,575.5,483.4,554.1,483.4L554.1,483.4z M299.4,254c0-41.4,33.3-74.7,73.4-74.7h145.3c40,0,74.7,33.3,74.7,74.7v64
			c0,14.7-12,25.3-26.7,25.3h-240c-14.6,0-25.3-12-25.3-25.3L299.4,254z M338.1,404.7c21.4,0,38.7,17.3,38.7,38.7
			c0,21.3-17.3,38.7-38.7,38.7c-21.3,0-38.7-17.4-38.7-38.7C299.4,422,316.8,404.7,338.1,404.7L338.1,404.7z M283.4,664.7l29.3-52
			h266.7l29.4,52H283.4z M283.4,664.7"/>
	</g>
</g>
<g id="Street" class="st1">
	<g class="st4">
		<path class="st3" d="M459.6,127.7c0.9,17.9,1.9,35.9,2.8,53.8c-18.5,0-27.9,0-46.5,0c0.9-17.9,1.9-35.9,2.8-53.8
			c-37.7,0-75.3,0-113.1,0c-75.6,215.9-151.4,432-227.1,647.9c101.9,0,203.8,0,305.7,0c0.9-17.9,1.9-35.9,2.8-53.8
			c34.8,0,69.5,0,104.3,0c0.9,17.9,1.9,35.9,2.8,53.8c101.9,0,203.8,0,305.7,0c-75.8-215.9-151.5-431.8-227.3-647.7
			C535,127.7,497.2,127.7,459.6,127.7z M411.8,262.1c18.4,0,36.8,0,55.1,0c2.7,49.8,5.4,99.7,8.1,149.4c-23.8,0-47.4,0-71.1,0
			C406.4,361.6,409.1,311.8,411.8,262.1z M391.4,641.3c2.7-49.8,5.4-99.7,8.1-149.4c26.6,0,53.2,0,79.6,0
			c2.7,49.8,5.4,99.7,8.1,149.4C455.2,641.3,423.3,641.3,391.4,641.3z"/>
	</g>
</g>
<g id="Social_Media" class="st1">
	<path class="st2" d="M45.6,701.3c88,8.6,167.3-13.4,238.9-67.4c-35.4-1.3-66.6-11.8-94-32.3s-46.5-47.2-57.7-80.4
		c24.4,4.3,48,3.8,71.3-2.4c-80.4-23.3-123.4-76.6-128.3-160.6c22.9,11.5,46.8,18.4,73.2,19.5c-6.4-5.1-12.3-9.3-17.7-14.2
		c-27.1-24.6-44.5-54.8-51.2-90.8c-7-37.6-1.4-73.4,16.8-107.3c2.3-4.4,2.3-4.4,5.4-0.6c33.2,39.9,72.9,73.9,117.4,100.7
		c28.1,17,58,30.8,89.2,41.3c27.9,9.5,56.6,16.3,85.8,20.1c11.2,1.4,22.4,2.9,33.8,3.3c5.1,0.2,5.2,0.2,4.2-4.7
		c-6.4-32-3.8-63.3,9-93.2c22.9-53.6,63.4-87.3,120.6-97.9c55.4-10.2,104.1,5.6,144.6,45.2c1.8,2.1,4.8,3,7.5,2.2
		c33.4-7.1,65.5-19.3,95.1-36.3l3.6-2c-13,38.4-36.2,67.4-69.3,88.8c31-3.3,60.7-11.8,89.8-24.1c-0.1,1.4-0.6,2.7-1.6,3.8
		c-20.2,29.2-45,54.9-73.4,76c-3.3,2.5-4.6,4.9-4.4,9c2.8,84-17.2,162.6-56.3,236.6c-19.7,37.2-44.4,71.6-73.5,102.1
		c-43.4,46-96.3,81.9-155,105.4c-31.3,12.5-63.9,21.4-97.1,26.5c-19.4,3-39,4.9-58.7,5.7c-23.2,1.1-46.4,0.3-69.5-2.2
		c-47.3-5-93.6-17.4-137.1-36.7c-19.8-8.8-39-18.9-57.4-30.3C48,703.4,46.5,702.9,45.6,701.3z"/>
</g>
<path id="News" class="st5" d="M72.8,675.1V228.2c0-20.4,7.2-37.8,21.8-52.3s31.9-21.8,52.3-21.8h437c20.4,0,37.8,7.2,52.5,21.8
	c14.6,14.5,22,31.9,22,52.3v50h73.2c20.4,0,37.8,7.2,52.3,21.8c14.4,14.5,21.8,31.9,21.8,52.3v323c0,20.4-7.2,37.8-21.8,52.3
	c-14.5,14.4-32,21.7-52.4,21.7H146.9c-20.4,0-37.8-7.2-52.3-21.8C80.1,712.9,72.8,695.5,72.8,675.1L72.8,675.1z M141.2,641.6
	c0.1,10,4.1,19.7,11.2,26.7c6.9,7.2,16.5,11.5,26.5,11.8h404.9c3.3,0,5.2-1.7,5.7-5V262.5c0.2-10.5-4-20.6-11.6-27.9
	c-7.4-7.5-17.6-11.6-28.1-11.4H180.9c-21.6-0.1-39.2,17.1-39.7,38.5V641.6L141.2,641.6L141.2,641.6z M198.8,587
	c-0.1-9.1,3.6-18,10.3-24.3c6.4-6.5,15.3-10.2,24.5-10.1h103.8c19,0.3,34.1,16,33.8,34.9c-0.3,18.6-15.3,33.4-33.8,33.8H233.5
	c-9.2,0.1-18-3.5-24.5-10.1C202.4,605,198.7,596.1,198.8,587L198.8,587z M198.8,451.9c0.2-19.1,15.7-34.5,34.7-34.7h264.1
	c9.1-0.1,17.9,3.5,24.2,10.1c6.6,6.4,10.3,15.4,10.1,24.6c-0.1,19-15.5,34.2-34.3,34.3H233.5c-9.2,0.1-18-3.5-24.5-10.1
	C202.4,469.8,198.7,461,198.8,451.9L198.8,451.9L198.8,451.9z M198.8,316.4c-0.1-9.1,3.5-17.9,10.1-24.2
	c6.4-6.6,15.4-10.3,24.6-10.1h264.1c9.1-0.1,17.9,3.4,24.2,9.9c6.6,6.3,10.3,15.3,10.1,24.5c0.1,9.2-3.5,18-10.1,24.5
	c-6.3,6.7-15,10.4-24.2,10.3H233.5C214.4,350.9,199.1,335.5,198.8,316.4L198.8,316.4L198.8,316.4z M658.3,642
	c0,9.9,3.9,19.5,10.8,26.5c6.8,7.2,16.3,11.3,26.2,11.6h4.2c10-0.3,19.5-4.5,26.3-11.8c7.1-7.3,10.7-16.4,10.7-27.1V352.2
	c0-3.8-1.7-5.7-5-5.7h-73.2V642L658.3,642z"/>
<g id="Traffic_Feed" class="st1">
	<circle class="st2" cx="552.5" cy="494.1" r="92.8"/>
	<path class="st2" d="M715,238h-48.8L421.7,101.8c-11-6.2-25-2.4-31.7,8.4c-6.2,10.4-2.8,23.8,7.6,30c0.3,0.1,0.6,0.1,0.9,0.2
		L575.1,238H157.8c-51.2,0-92.8,42.2-92.8,93.5v325.1c0,51.2,41.6,92.5,92.8,92.5H715c51.2,0,91-41.3,91-92.5V331.5
		C806,280.2,766.2,238,715,238z M320.4,611H181.1c-12.8,0-23.2-10.2-23.2-23s10.4-23,23.2-23h139.3c13.7-4,24.9,9.3,24.9,23
		S334.1,611,320.4,611z M320.4,517H181.1c-12.8,0-23.2-10.2-23.2-23c0-12.8,10.4-23,23.2-23h139.3c13.7-2,24.9,9.1,24.9,23
		C345.3,507.7,334.1,517,320.4,517z M350.3,408c-4.2,12.2-17.7,20-29.9,15H181.1c-12.8,0-23.2-9.7-23.2-22.5
		c0-12.8,10.4-22.5,23.2-22.5h139.3c5.3,0,10.5-0.8,15.4,0.9C347.8,383,354.4,395.8,350.3,408z M552.5,633.4
		c-76.9,0-139.3-62.4-139.3-139.3s62.4-139.3,139.3-139.3s139.3,62.3,139.3,139.3C691.8,571,629.4,633.4,552.5,633.4z"/>
</g>
</svg>
