<?xml version="1.0" encoding="utf-8"?>
<!-- Generator: Adobe Illustrator 21.0.0, SVG Export Plug-In . SVG Version: 6.00 Build 0)  -->
<svg version="1.1" id="V2" xmlns="http://www.w3.org/2000/svg" xmlns:xlink="http://www.w3.org/1999/xlink" x="0px" y="0px"
	 viewBox="0 0 880 880" style="enable-background:new 0 0 880 880;" xml:space="preserve">
<style type="text/css">
	.st0{display:none;fill:#EAAC21;}
	.st1{display:none;}
	.st2{display:inline;fill:#FFFFFF;}
	.st3{display:inline;fill:#EAAC21;}
	.st4{display:none;fill:#27AAE1;}
	.st5{display:none;fill:#FFFFFF;}
	.st6{display:inline;fill:#34C181;}
	.st7{fill:#FFFFFF;}
	.st8{display:inline;}
	.st9{fill:#34C181;}
</style>
<circle class="st0" cx="440" cy="440" r="440"/>
<g id="News_1_" class="st1">
	<path class="st2" d="M626.1,331h-43.4v-38.4c0-22.1-17.9-39.9-39.9-39.9H253.9c-22.1,0-39.9,17.9-39.9,39.9v294.8
		c0,22.1,17.9,39.9,39.9,39.9h288.8l0,0h83.3c22.1,0,39.9-17.9,39.9-39.9V371C666,348.9,648.1,331,626.1,331z M254.7,586.6V293.4
		H542V331v40.7v214.9l-158.1,0H254.7z M625.3,586.6h-42.6V371.7h42.6V586.6z"/>
	<rect x="293.3" y="504.7" class="st2" width="108.9" height="40.7"/>
	<rect x="293.3" y="419.6" class="st2" width="208.9" height="40.7"/>
	<rect x="293.3" y="334.6" class="st2" width="208.9" height="40.7"/>
</g>
<g id="News_2_" class="st1">
	<path class="st3" d="M626.1,331h-43.4v-38.4c0-22.1-17.9-39.9-39.9-39.9H253.9c-22.1,0-39.9,17.9-39.9,39.9v294.8
		c0,22.1,17.9,39.9,39.9,39.9h288.8l0,0h83.3c22.1,0,39.9-17.9,39.9-39.9V371C666,348.9,648.1,331,626.1,331z M254.7,586.6V293.4
		H542V331v40.7v214.9l-158.1,0H254.7z M625.3,586.6h-42.6V371.7h42.6V586.6z"/>
	<rect x="293.3" y="504.7" class="st3" width="108.9" height="40.7"/>
	<rect x="293.3" y="419.6" class="st3" width="208.9" height="40.7"/>
	<rect x="293.3" y="334.6" class="st3" width="208.9" height="40.7"/>
</g>
<circle class="st4" cx="440" cy="440" r="440"/>
<path id="Social" class="st5" d="M643.4,314.4h-45.2v146.8c0,31.2-25.3,56.6-56.6,56.6H304.4V563c0,12.4,10.2,22.6,22.6,22.6h248.6
	L666,676V337C666,324.6,655.8,314.4,643.4,314.4z M553,450V246.6c0-12.4-10.2-22.6-22.6-22.6H236.6c-12.4,0-22.6,10.2-22.6,22.6V563
	l90.4-90.4h226C542.8,472.6,553,462.4,553,450z"/>
<path id="Social_1_" class="st4" d="M643.4,314.4h-45.2v146.8c0,31.2-25.3,56.6-56.6,56.6H304.4V563c0,12.4,10.2,22.6,22.6,22.6
	h248.6L666,676V337C666,324.6,655.8,314.4,643.4,314.4z M553,450V246.6c0-12.4-10.2-22.6-22.6-22.6H236.6
	c-12.4,0-22.6,10.2-22.6,22.6V563l90.4-90.4h226C542.8,472.6,553,462.4,553,450z"/>
<g class="st1">
	<circle class="st6" cx="440" cy="440.2" r="440"/>
</g>
<path id="Train_1_" class="st5" d="M440,214c-95.2,0-190.3,11.9-190.3,95.2v226c0,45.9,37.3,83.3,83.3,83.3l-35.7,35.7V666h53.1
	l47.6-47.6h89.7l47.6,47.6h47.6v-11.9l-35.7-35.7c45.9,0,83.3-37.3,83.3-83.3v-226C630.3,225.9,545.1,214,440,214z M332.9,570.8
	c-19.7,0-35.7-15.9-35.7-35.7s15.9-35.7,35.7-35.7c19.7,0,35.7,15.9,35.7,35.7S352.7,570.8,332.9,570.8z M416.2,404.3H297.3v-95.2
	h118.9V404.3z M463.8,404.3v-95.2h118.9v95.2H463.8z M547.1,570.8c-19.7,0-35.7-15.9-35.7-35.7s15.9-35.7,35.7-35.7
	c19.7,0,35.7,15.9,35.7,35.7S566.8,570.8,547.1,570.8z"/>
<path id="Radio_2_" class="st7" d="M251.5,294.8c-15.7,6-26.7,22-26.7,39.8V593c0,23.7,19.2,43,43,43h344.4c23.9,0,43-19.4,43-43
	V334.7c0-23.9-19.2-43-43-43H360.4l177.8-71.9L523.5,184L251.5,294.8z M332.4,593c-35.7,0-64.6-28.8-64.6-64.6
	c0-35.7,28.8-64.6,64.6-64.6s64.6,28.8,64.6,64.6C397,564.1,368.1,593,332.4,593z M612.2,420.8h-43v-43h-43v43H267.8v-86.1h344.4
	V420.8z"/>
<g id="Siren" class="st1">
	<rect x="292.3" y="593.8" class="st2" width="295.4" height="42.2"/>
	<path class="st2" d="M313.4,572.7h253.2V403.9c0-69.6-57-126.6-126.6-126.6h0c-69.6,0-126.6,57-126.6,126.6V572.7z"/>
	<rect x="422.1" y="184" class="st2" width="35.9" height="57.4"/>
	
		<rect x="230.9" y="375.2" transform="matrix(-1.836970e-16 1 -1 -1.836970e-16 652.7123 155.107)" class="st2" width="35.9" height="57.4"/>
	
		<rect x="613.3" y="375.2" transform="matrix(-1.836970e-16 1 -1 -1.836970e-16 1035.1071 -227.2877)" class="st2" width="35.9" height="57.4"/>
	
		<rect x="560.6" y="236.7" transform="matrix(0.7071 0.7071 -0.7071 0.7071 357.1104 -331.3278)" class="st2" width="35.9" height="57.4"/>
	
		<rect x="283.7" y="236.8" transform="matrix(-0.7071 0.7071 -0.7071 -0.7071 702.629 239.999)" class="st2" width="35.9" height="57.4"/>
</g>
<g id="Traffic_Service_1_" class="st1">
	<path class="st2" d="M440,378.1c-34.2,0-61.9,27.7-61.9,61.9c0,27,17.3,49.9,41.3,58.4V666h41.1V498.4
		c24.1-8.5,41.3-31.4,41.3-58.4C501.9,405.8,474.2,378.1,440,378.1z"/>
	<path class="st2" d="M440,214c-124.7,0-226,101.1-226,226c0,62.4,25.3,118.9,66.2,159.8l29.1-29.1c-33.5-33.5-54.2-79.7-54.2-130.7
		c0-102.1,82.8-184.9,184.9-184.9S624.9,337.9,624.9,440c0,51.1-20.7,97.3-54.2,130.7l29.1,29.1C640.7,558.9,666,502.4,666,440
		C666,315.1,564.7,214,440,214z"/>
	<path class="st2" d="M440,296.2c-79.5,0-143.8,64.3-143.8,143.8c0,39.8,16.1,75.7,42.1,101.7l29.1-29.1
		c-18.6-18.6-30.1-44.3-30.1-72.6c0-56.7,46-102.7,102.7-102.7c56.7,0,102.7,46,102.7,102.7c0,28.4-11.5,54-30.1,72.6l29.1,29.1
		c26-26,42.1-62,42.1-101.7C583.8,360.5,519.5,296.2,440,296.2z"/>
</g>
<g id="Train_2_" class="st1">
	<path class="st6" d="M440,214c-95.2,0-190.3,11.9-190.3,95.2v226c0,45.9,37.3,83.3,83.3,83.3l-35.7,35.7V666h53.1l47.6-47.6h89.7
		l47.6,47.6h47.6v-11.9l-35.7-35.7c45.9,0,83.3-37.3,83.3-83.3v-226C630.3,225.9,545.1,214,440,214z M332.9,570.8
		c-19.7,0-35.7-15.9-35.7-35.7s15.9-35.7,35.7-35.7c19.7,0,35.7,15.9,35.7,35.7S352.7,570.8,332.9,570.8z M416.2,404.3H297.3v-95.2
		h118.9V404.3z M463.8,404.3v-95.2h118.9v95.2H463.8z M547.1,570.8c-19.7,0-35.7-15.9-35.7-35.7s15.9-35.7,35.7-35.7
		c19.7,0,35.7,15.9,35.7,35.7S566.8,570.8,547.1,570.8z"/>
</g>
<g id="Radio_1_" class="st1">
	<path class="st6" d="M251.5,294.8c-15.7,6-26.7,22-26.7,39.8V593c0,23.7,19.2,43,43,43h344.4c23.9,0,43-19.4,43-43V334.7
		c0-23.9-19.2-43-43-43H360.4l177.8-71.9L523.5,184L251.5,294.8z M332.4,593c-35.7,0-64.6-28.8-64.6-64.6
		c0-35.7,28.8-64.6,64.6-64.6s64.6,28.8,64.6,64.6C397,564.1,368.1,593,332.4,593z M612.2,420.8h-43v-43h-43v43H267.8v-86.1h344.4
		V420.8z"/>
</g>
<g id="Siren_1_" class="st1">
	<g class="st8">
		<rect x="292.3" y="593.8" class="st9" width="295.4" height="42.2"/>
	</g>
	<g class="st8">
		<path class="st9" d="M313.4,572.7h253.2V403.9c0-69.6-57-126.6-126.6-126.6h0c-69.6,0-126.6,57-126.6,126.6V572.7z"/>
	</g>
	<g class="st8">
		<rect x="422.1" y="184" class="st9" width="35.9" height="57.4"/>
	</g>
	<g class="st8">
		<rect x="220.1" y="386" class="st9" width="57.4" height="35.9"/>
	</g>
	<g class="st8">
		<rect x="602.5" y="386" class="st9" width="57.4" height="35.9"/>
	</g>
	<g class="st8">
		
			<rect x="549.8" y="247.5" transform="matrix(0.7071 -0.7071 0.7071 0.7071 -18.2311 486.7993)" class="st9" width="57.4" height="35.9"/>
	</g>
	<g class="st8">
		
			<rect x="283.7" y="236.8" transform="matrix(0.7071 -0.7071 0.7071 0.7071 -99.4108 291.0385)" class="st9" width="35.9" height="57.4"/>
	</g>
</g>
<g id="Traffic_Service_2_" class="st1">
	<g class="st8">
		<path class="st9" d="M440,378.1c-34.2,0-61.9,27.7-61.9,61.9c0,27,17.3,49.9,41.3,58.4V666h41.1V498.4
			c24.1-8.5,41.3-31.4,41.3-58.4C501.9,405.8,474.2,378.1,440,378.1z"/>
	</g>
	<g class="st8">
		<path class="st9" d="M440,214c-124.7,0-226,101.1-226,226c0,62.4,25.3,118.9,66.2,159.8l29.1-29.1
			c-33.5-33.5-54.2-79.7-54.2-130.7c0-102.1,82.8-184.9,184.9-184.9S624.9,337.9,624.9,440c0,51.1-20.7,97.3-54.2,130.7l29.1,29.1
			C640.7,558.9,666,502.4,666,440C666,315.1,564.7,214,440,214z"/>
	</g>
	<g class="st8">
		<path class="st9" d="M440,296.2c-79.5,0-143.8,64.3-143.8,143.8c0,39.8,16.1,75.7,42.1,101.7l29.1-29.1
			c-18.6-18.6-30.1-44.3-30.1-72.6c0-56.7,46-102.7,102.7-102.7c56.7,0,102.7,46,102.7,102.7c0,28.4-11.5,54-30.1,72.6l29.1,29.1
			c26-26,42.1-62,42.1-101.7C583.8,360.5,519.5,296.2,440,296.2z"/>
	</g>
</g>
</svg>
