<?xml version="1.0" encoding="utf-8"?>
<!-- Generator: Adobe Illustrator 21.0.2, SVG Export Plug-In . SVG Version: 6.00 Build 0)  -->
<svg version="1.1" id="V2" xmlns="http://www.w3.org/2000/svg" xmlns:xlink="http://www.w3.org/1999/xlink" x="0px" y="0px"
	 viewBox="0 0 880 880" style="enable-background:new 0 0 880 880;" xml:space="preserve">
<style type="text/css">
	.st0{display:none;}
	.st1{display:inline;fill:#FF0218;}
	.st2{display:inline;fill:#FFFFFF;}
	.st3{fill:#FFFFFF;}
	.st4{display:none;fill:#FFFFFF;}
</style>
<g class="st0">
	<polygon class="st1" points="557.9,0 322.1,0 117.9,117.9 0,322.1 0,557.9 117.9,762.1 322.1,880 557.9,880 762.1,762.1 880,557.9 
		880,322.1 762.1,117.9 	"/>
	<path class="st2" d="M549.9,30l190.3,109.9L850,330.1v219.7L740.1,740.1L549.9,850H330.1L139.9,740.1L30,549.9V330.1l109.9-190.3
		L330.1,30H549.9 M557.9,0H322.1L117.9,117.9L0,322.1v235.8l117.9,204.2L322.1,880h235.8l204.2-117.9L880,557.9V322.1L762.1,117.9
		L557.9,0L557.9,0z"/>
</g>
<g id="Acquisition_1_" class="st0">
	<path class="st2" d="M392.9,440l143.3-107.1c-32.6-43.6-84.7-71.8-143.3-71.8C294.1,261.1,214,341.2,214,440
		s80.1,178.9,178.9,178.9c60,0,113.1-29.6,145.6-74.9L392.9,440z"/>
	<circle class="st2" cx="618.1" cy="440" r="47.9"/>
</g>
<g id="Fusion_1_" class="st0">
	<path class="st2" d="M383.7,440c0-46.1,22.1-87.1,56.3-112.8c-23.6-17.8-53-28.3-84.8-28.3C277.2,298.8,214,362,214,440
		s63.2,141.2,141.2,141.2c31.8,0,61.2-10.6,84.8-28.3C405.8,527.1,383.7,486.1,383.7,440z"/>
	<path class="st2" d="M524.8,298.8c-31.8,0-61.2,10.6-84.8,28.3c34.2,25.8,56.3,66.7,56.3,112.8S474.2,527,440,552.7
		c23.6,17.8,53,28.3,84.8,28.3c78,0,141.2-63.2,141.2-141.2S602.8,298.8,524.8,298.8z"/>
</g>
<g id="SpinOff_1_" class="st0">
	
		<ellipse transform="matrix(0.3371 -0.9415 0.9415 0.3371 -194.2669 620.0676)" class="st2" cx="343.2" cy="448" rx="129.2" ry="129.2"/>
	
		<ellipse transform="matrix(0.3371 -0.9415 0.9415 0.3371 -9.7558 877.027)" class="st2" cx="617.9" cy="445.4" rx="48.1" ry="48.1"/>
	<polygon class="st2" points="540.2,363.7 618.6,324.4 602.9,390.9 	"/>
	<path class="st2" d="M576.8,367.7l24.2-15.2c-34.4-65.2-102.8-109.7-181.7-109.7c-112.5,0-203.9,90.5-205.2,202.7h28.5
		c0.7-46.3,19-89.6,51.7-122.4c33.4-33.4,77.8-51.8,125-51.8s91.6,18.4,125,51.8C557.6,336.4,568.5,351.4,576.8,367.7z"/>
</g>
<g id="Strike_2_">
	<g>
		<path class="st3" d="M651.2,245.6c3.9,0,7.2,3.4,7.2,7.2v316.8c0,3.9-3.4,7.2-7.2,7.2L469.1,577h-12.5l0,0H411l-183.6,0.2
			c-1.6,0-2.9-0.6-4.1-1.8s-1.6-2.5-1.6-4.1l0.2-318.6c0-4,3.2-7.2,7-7.2H651.2 M651.2,200H228.8c-29.1,0-52.6,23.7-52.6,52.8
			L176,571.4c0,28.4,23,51.4,51.3,51.4l0,0l183.5-0.1V728H469V622.5l182.1-0.1c29.1,0,52.8-23.7,52.8-52.8V252.8
			C704,223.7,680.3,200,651.2,200L651.2,200z"/>
	</g>
	<g>
		<polygon class="st3" points="519,291.5 318.4,492 355.7,529.3 556.2,328.7 		"/>
	</g>
	<g>
		<polygon class="st3" points="355.7,291.5 318.4,328.7 519,529.3 556.2,492 		"/>
	</g>
</g>
<g id="Dismissed_2_" class="st0">
	<path class="st2" d="M227.8,285.5l26.6,26.6c-15.1,6.4-25.5,21.4-25.5,39l-0.2,233c0,23.5,18.8,42.4,42.4,42.4h297.7l49.6,49.6
		l28.6-28.6L256.4,256.9L227.8,285.5z"/>
	<path class="st2" d="M609.8,308.7h-84.7v-42.4c0-23.5-18.8-42.4-42.4-42.4H398c-23.5,0-42.4,18.8-42.4,42.4v33.3l295.1,295.1
		c0.9-3.4,1.4-7,1.4-10.8v-233C652.2,327.6,633.4,308.7,609.8,308.7z M482.8,308.7h-84.7v-42.4h84.7V308.7z"/>
</g>
<path id="Insolvence_2_" class="st4" d="M452.6,311.9c44.7,0,61.3,21.3,62.8,52.7h55.5c-1.8-43.2-28.1-82.9-80.6-95.7v-55H415v54.2
	c-13.3,3-25.9,7.5-37.2,13.6l36.9,36.9C424.9,314.4,437.5,311.9,452.6,311.9z M272.5,240.6l-31.9,31.9l86.4,86.4
	c0,52.2,39.2,80.6,98.2,98.2l88.1,88.1c-8.5,12.1-26.4,22.9-60.8,22.9c-51.7,0-72.1-23.1-74.8-52.7h-55.2c3,55,44.2,85.9,92.4,96.2
	V666h75.3v-54c24.1-4.5,45.7-13.8,61.5-28.1l55.7,55.7l31.9-31.9L272.5,240.6z"/>
</svg>
