<?xml version="1.0" encoding="utf-8"?>
<!-- Generator: Adobe Illustrator 21.0.2, SVG Export Plug-In . SVG Version: 6.00 Build 0)  -->
<svg version="1.1" id="V2" xmlns="http://www.w3.org/2000/svg" xmlns:xlink="http://www.w3.org/1999/xlink" x="0px" y="0px"
	 viewBox="0 0 880 880" style="enable-background:new 0 0 880 880;" xml:space="preserve">
<style type="text/css">
	.st0{display:none;}
	.st1{display:inline;fill:#FF0218;}
	.st2{display:inline;fill:#FFFFFF;}
	.st3{fill:#FFFFFF;}
	.st4{display:none;fill:#FFFFFF;}
</style>
<g id="Bg" class="st0">
	<path class="st1" d="M440,865c-57.4,0-113-11.2-165.4-33.4c-50.6-21.4-96.1-52.1-135.1-91.1S69.8,656,48.4,605.4
		C26.2,553,15,497.4,15,440s11.2-113,33.4-165.4c21.4-50.6,52.1-96.1,91.1-135.1S224,69.8,274.6,48.4C327,26.2,382.6,15,440,15
		s113,11.2,165.4,33.4c50.6,21.4,96.1,52.1,135.1,91.1s69.7,84.5,91.1,135.1C853.8,327,865,382.6,865,440s-11.2,113-33.4,165.4
		c-21.4,50.6-52.1,96.1-91.1,135.1s-84.5,69.7-135.1,91.1C553,853.8,497.4,865,440,865z"/>
	<path class="st2" d="M440,30c55.4,0,109.1,10.8,159.6,32.2c48.8,20.6,92.7,50.2,130.3,87.9c37.7,37.7,67.2,81.5,87.9,130.3
		C839.2,330.9,850,384.6,850,440s-10.8,109.1-32.2,159.6c-20.6,48.8-50.2,92.7-87.9,130.3c-37.7,37.7-81.5,67.2-130.3,87.9
		C549.1,839.2,495.4,850,440,850s-109.1-10.8-159.6-32.2c-48.8-20.6-92.7-50.2-130.3-87.9c-37.7-37.7-67.2-81.5-87.9-130.3
		C40.8,549.1,30,495.4,30,440s10.8-109.1,32.2-159.6c20.6-48.8,50.2-92.7,87.9-130.3c37.7-37.7,81.5-67.2,130.3-87.9
		C330.9,40.8,384.6,30,440,30 M440,0C197,0,0,197,0,440s197,440,440,440s440-197,440-440S683,0,440,0L440,0z"/>
</g>
<g id="Jam_Cam" class="st0">
	<path class="st2" d="M543,380.1H373.9c-10.1,0-18.6,6.5-21.8,15.5l-32,92.1v123c0,8.5,6.9,15.4,15.4,15.4h15.4
		c8.5,0,15.4-6.9,15.4-15.4v-15.4h184.5v15.4c0,8.5,6.9,15.4,15.4,15.4h15.4c8.5,0,15.4-6.9,15.4-15.4v-123l-32-92.1
		C561.8,386.5,553.1,380.1,543,380.1z M373.9,549.2c-12.8,0-23.1-10.3-23.1-23.1s10.3-23.1,23.1-23.1s23.1,10.3,23.1,23.1
		S386.7,549.2,373.9,549.2z M543,549.2c-12.8,0-23.1-10.3-23.1-23.1S530.2,503,543,503s23.1,10.3,23.1,23.1S555.8,549.2,543,549.2z
		 M350.8,472.3l23.1-69.2H543l23.1,69.2H350.8z"/>
	<path class="st2" d="M634,326.4c-3.1-9.1-11.7-15.5-21.8-15.5H443.1c-10.1,0-18.6,6.5-21.8,15.5l-10.5,30.2l24.7,0.1l7.6-22.8
		h169.1l23.1,69.2h-39l9.7,31.6c2-0.5,4-0.8,6.2-0.8c12.8,0,23.1,10.3,23.1,23.1c0,10.2-6.6,18.8-15.7,21.9l0.3,1.1v62
		c0.3,8.2,7.1,14.9,15.3,14.9h15.4c8.5,0,15.4-6.9,15.4-15.4v-123L634,326.4z"/>
	<path class="st2" d="M331.8,333.6v-13.4l53.3,32.2v-94.2l-53.3,32.2V277c0-12.7-10.4-23.1-23.1-23.1H237
		c-12.7,0-23.1,10.4-23.1,23.1v56.5c0,12.7,10.4,23.1,23.1,23.1h71.7C321.4,356.7,331.8,346.3,331.8,333.6z"/>
</g>
<g id="Jam_2_">
	<path class="st3" d="M493.5,308.5H224.6c-16.2,0-29.6,10.2-34.7,24.7l-50.9,146.4v195.5c0,13.4,11,24.5,24.5,24.5H188
		c13.4,0,24.5-11,24.5-24.5v-24.5h293.4v24.5c0,13.4,11,24.5,24.5,24.5h24.5c13.4,0,24.5-11,24.5-24.5V479.5l-50.9-146.4
		C523.3,318.7,509.6,308.5,493.5,308.5z M224.6,577.4c-20.3,0-36.6-16.4-36.6-36.6c0-20.2,16.4-36.6,36.6-36.6
		c20.3,0,36.6,16.4,36.6,36.6C261.2,560.9,244.9,577.4,224.6,577.4z M493.5,577.4c-20.3,0-36.6-16.4-36.6-36.6
		c0-20.2,16.4-36.6,36.6-36.6c20.3,0,36.6,16.4,36.6,36.6C530.1,560.9,513.7,577.4,493.5,577.4z M188,455.1l36.6-110h268.9l36.6,110
		H188z"/>
	<path class="st3" d="M638.2,223.2c-4.9-14.5-18.6-24.7-34.7-24.7H334.6c-16.2,0-29.6,10.2-34.7,24.7l-16.7,48.1l39.3,0.1l12-36.1
		h268.9l36.6,110h-61.9l15.5,50.3c3.2-0.9,6.4-1.3,9.9-1.3c20.3,0,36.6,16.4,36.6,36.6c0,16.2-10.5,29.9-24.9,34.8l0.5,1.8v98.7
		c0.5,13,11.2,23.6,24.5,23.6h24.5c13.4,0,24.5-11,24.5-24.5V369.5L638.2,223.2z"/>
</g>
<g id="Accident_1_" class="st0">
	<path class="st2" d="M494.7,393.6c6.2-10,1.2-23.2-10.1-26.5L276,305.8c-11.7,0-21.4,7.4-25.1,17.9l-36.9,106v141.7
		c0,9.7,8,17.7,17.7,17.7h17.7c9.7,0,17.7-8,17.7-17.7v-17.7l212.5,17.7c0,9.7,8,17.7,17.7,17.7H515c9.7,0,17.7-8,17.7-17.7v-92.2
		L482,414L494.7,393.6z M276,500.6c-14.7,0-26.6-11.9-26.6-26.6s11.9-26.6,26.6-26.6s26.6,11.9,26.6,26.6S290.7,500.6,276,500.6z
		 M469,520.7c-14.7,0-26.6-11.9-26.6-26.6c0-7.2,2.8-13.7,7.4-18.4l27.6,15.7V502l10.4,11C483,517.8,476.3,520.7,469,520.7z
		 M497.4,468.8l-248-56.8l26.6-79.7l194.8,55.9l-16.3,27.2L497.4,468.8z"/>
	<path class="st2" d="M537.3,366.8l82.3-46.4c2.5-1.4,2.2-5-0.4-6.1l-58-23.2c-1.8-0.7-3.8,0.2-4.4,2l-24.3,69.6
		C531.5,365.7,534.6,368.3,537.3,366.8z"/>
	<path class="st2" d="M664.7,420.1l-56-45.2c-1-0.8-2.2-1-3.4-0.5l-88.6,36.2c-3.3,1.4-2.5,6.3,1.1,6.5l144.6,9
		C665.7,426.2,667.3,422.1,664.7,420.1z"/>
</g>
<g id="Weather_1_" class="st0">
	<path class="st2" d="M578.4,328c-12.8-65-69.9-113.8-138.4-113.8c-54.4,0-101.7,30.9-125.2,76.1c-56.7,6-100.8,54.1-100.8,112.2
		c0,62.3,50.7,113,113,113h244.8c52,0,94.2-42.2,94.2-94.2C666,371.7,627.4,331.4,578.4,328z"/>
	<path class="st2" d="M320.3,596.8c0,15.8,12.8,28.7,28.7,28.7c15.8,0,28.7-12.8,28.7-28.7c0-15.8-28.7-51.1-28.7-51.1
		S320.3,581,320.3,596.8z"/>
	<path class="st2" d="M410.8,637.1c0,15.8,12.8,28.7,28.7,28.7s28.7-12.8,28.7-28.7c0-15.8-28.7-51.1-28.7-51.1
		S410.8,621.2,410.8,637.1z"/>
	<path class="st2" d="M501.4,596.8c0,15.8,12.8,28.7,28.7,28.7s28.7-12.8,28.7-28.7c0-15.8-28.7-51.1-28.7-51.1
		S501.4,581,501.4,596.8z"/>
</g>
<path id="Delay_1_" class="st4" d="M504.6,204H375.4v43h129.1v-43H504.6z M418.5,483.8h43V354.7h-43V483.8z M591.3,341.5l30.6-30.6
	c-9.3-11-19.4-21.3-30.3-30.3L561,311.2c-33.4-26.7-75.3-42.6-121-42.6c-107,0-193.7,86.7-193.7,193.7S332.8,656,440,656
	s193.7-86.7,193.7-193.7C633.7,416.7,617.8,374.7,591.3,341.5z M440,613c-83.3,0-150.7-67.4-150.7-150.7S356.7,311.6,440,311.6
	S590.7,379,590.7,462.3S523.3,613,440,613z"/>
<path id="Replacement_1_" class="st4" d="M249.7,547.1c0,20.9,9.3,39.7,23.8,52.8v42.3c0,13.1,10.7,23.8,23.8,23.8h23.8
	c13.1,0,23.8-10.7,23.8-23.8v-23.8h190.3v23.8c0,13.1,10.7,23.8,23.8,23.8h23.8c13.1,0,23.8-10.7,23.8-23.8v-42.3
	c14.5-13.1,23.8-31.9,23.8-52.8V309.2c0-83.3-85.2-95.2-190.3-95.2s-190.3,11.9-190.3,95.2L249.7,547.1L249.7,547.1z M332.9,570.8
	c-19.7,0-35.7-15.9-35.7-35.7s15.9-35.7,35.7-35.7c19.7,0,35.7,15.9,35.7,35.7S352.7,570.8,332.9,570.8z M547.1,570.8
	c-19.7,0-35.7-15.9-35.7-35.7s15.9-35.7,35.7-35.7c19.7,0,35.7,15.9,35.7,35.7S566.8,570.8,547.1,570.8z M582.7,428.1H297.3V309.2
	h285.5L582.7,428.1L582.7,428.1z"/>
<path id="Block_1_" class="st4" d="M624.9,290.8H255.1c-22.6,0-41.1,18.5-41.1,41.1v127.6c0,22.6,18.5,41.1,41.1,41.1h88.1v88.6
	h41.1v-88.6h111.4v88.6h41.1v-88.6h88.1c22.6,0,41.1-18.5,41.1-41.1V331.9C666,309.3,647.5,290.8,624.9,290.8z M624.9,385.8
	L571,331.9h53.9V385.8z M338.3,331.9l127.6,127.6H388L260.3,331.9H338.3z M255.1,404.4l55.1,55.1h-55.1V404.4z M543.6,459.5
	L416,331.9h77.8L624.9,454v5.5H543.6z"/>
</svg>
