<?xml version="1.0" encoding="utf-8"?>
<!-- Generator: Adobe Illustrator 19.2.1, SVG Export Plug-In . SVG Version: 6.00 Build 0)  -->
<svg version="1.1" id="Ebene_1" xmlns="http://www.w3.org/2000/svg" xmlns:xlink="http://www.w3.org/1999/xlink" x="0px" y="0px"
	 viewBox="0 0 880 880" style="enable-background:new 0 0 880 880;" xml:space="preserve">
<style type="text/css">
	.st0{fill:#999999;}
	.st1{display:none;}
	.st2{display:inline;fill:#FFFFFF;}
	.st3{display:none;fill:#FFFFFF;}
	.st4{fill:#FFFFFF;}
</style>
<g>
	<circle class="st0" cx="440" cy="440.2" r="440"/>
</g>
<g id="Companies" class="st1">
	<path class="st2" d="M200,176v456h116v-69h47v69h116V176H200z M289,501h-46v-46h46V501z M289,424h-46v-47h46V424z M289,346h-46v-47
		h46V346z M289,268h-46v-46h46V268z M363,501h-47v-46h47V501z M363,424h-47v-47h47V424z M363,346h-47v-47h47V346z M363,268h-47v-46
		h47V268z M437,501h-47v-46h47V501z M437,424h-47v-47h47V424z M437,346h-47v-47h47V346z M437,268h-47v-46h47V268z"/>
	<path class="st2" d="M497,333v299h76v-45h31v45h76V333H497z M555,546h-30v-30h30V546z M555,495h-30v-30h30V495z M555,444h-30v-31
		h30V444z M555,393h-30v-30h30V393z M604,546h-31v-30h31V546z M604,495h-31v-30h31V495z M604,444h-31v-31h31V444z M604,393h-31v-30
		h31V393z M653,546h-31v-30h31V546z M653,495h-31v-30h31V495z M653,444h-31v-31h31V444z M653,393h-31v-30h31V393z"/>
</g>
<path id="Cities" class="st3" d="M716.2,552.2L698,563V325h-76v141.2l-48.8-48.8L515,475.8V235L458,143L401,235v289l-32.2-27.2
	L328,531.3v55.9l-29.7-17.4l-15.3,8.8V388h-94v178.3l-25.6-15.4L130,570.9V625h-0.1c1.2,29,139.6,52.2,310.2,52.2
	c168,0,304.7-22.2,310-50.2H750v-54.8L716.2,552.2z M221,534h-14v-31h14V534z M221,441h-14v-31h14V441z M244,486h-13v-33h13V486z
	 M244,441h-13v-31h13V441z M266,486h-13v-33h13V486z M266,441h-13v-31h13V441z M362,558h-16v-16h16V558z M457,436h-17v-31h17V436z
	 M457,306h-17v-32h17V306z M488,436h-17v-31h17V436z M488,383h-17v-32h17V383z M585,532h-17v-16h17V532z M585,513h-17v-17h17V513z
	 M604,532h-16v-16h16V532z M604,513h-16v-17h16V513z M651,395h-14v-20h14V395z M651,361h-14v-19h14V361z M685,429h-13v-20h13V429z
	 M685,395h-13v-20h13V395z"/>
<path id="Streets" class="st4" d="M399.5,554h83.7l8,68H617L517,190h-72.5l2.9,27h-13.8l3.1-27H365L255,622h136L399.5,554z
	 M432.4,242h17.1l6.6,76H425L432.4,242z M418.6,360h44.7l15.4,130h-76.5L418.6,360z"/>
</svg>
