<svg id="Ebene_1" data-name="Ebene 1" xmlns="http://www.w3.org/2000/svg" viewBox="0 0 880 880"><defs><style>.cls-1{fill:#999;}.cls-2{fill:#fff;}</style></defs><title>icon_mapsrc_cities</title><circle class="cls-1" cx="440" cy="440" r="440"/><path id="Cities" class="cls-2" d="M716.24,552.18L698,563V325H622V466.17l-48.76-48.84L515,475.77V235L458,143,401,235V524l-32.19-27.16L328,531.29v55.92l-29.71-17.4L283,578.61V388H189V566.27l-25.59-15.4L130,570.94V625h-0.15c1.24,29,139.62,52.24,310.18,52.24,168,0,304.71-22.24,310-50.24H750V572.24ZM221,534H207V503h14v31Zm0-93H207V410h14v31Zm23,45H231V453h13v33Zm0-45H231V410h13v31Zm22,45H253V453h13v33Zm0-45H253V410h13v31Zm96,117H346V542h16v16Zm95-122H440V405h17v31Zm0-130H440V274h17v32Zm31,130H471V405h17v31Zm0-53H471V351h17v32Zm97,149H568V516h17v16Zm0-19H568V496h17v17Zm19,19H588V516h16v16Zm0-19H588V496h16v17Zm47-118H637V375h14v20Zm0-34H637V342h14v19Zm34,68H672V409h13v20Zm0-34H672V375h13v20Z" transform="translate(0 -0.16)"/></svg>