<svg id="Ebene_1" data-name="Ebene 1" xmlns="http://www.w3.org/2000/svg" viewBox="0 0 721.97 588.7"><defs><style>.cls-1{fill:#55abed;}</style></defs><title>icon_src_twitter</title><g id="Twitter"><path class="cls-1" d="M56.48,649c80.65,7.9,153.29-12.26,218.9-61.77-32.44-1.18-61-10.79-86.15-29.57s-42.6-43.21-52.83-73.64c22.32,3.9,44,3.45,65.3-2.22C128,460.41,88.65,411.61,84.1,334.62c21,10.53,42.88,16.84,67.1,17.88-5.82-4.64-11.28-8.49-16.22-13-24.87-22.54-40.76-50.25-46.89-83.2C81.68,221.86,86.83,189,103.45,158c2.15-4,2.11-4,4.93-.58A425.24,425.24,0,0,0,216,249.69a416.58,416.58,0,0,0,81.7,37.88A404.44,404.44,0,0,0,376.31,306c10.29,1.31,20.57,2.63,30.94,3,4.7,0.19,4.73.14,3.84-4.32-5.82-29.3-3.47-58,8.25-85.4,21-49.1,58.06-80,110.53-89.7,50.81-9.39,95.43,5.09,132.54,41.45a6.58,6.58,0,0,0,6.83,2,300.94,300.94,0,0,0,87.18-33.27l3.29-1.84c-11.92,35.18-33.16,61.73-63.53,81.37,28.43-3,55.58-10.79,82.26-22.09a5.37,5.37,0,0,1-1.48,3.44,297.21,297.21,0,0,1-67.29,69.68c-3.05,2.26-4.2,4.49-4.07,8.29,2.52,77-15.78,149-51.63,216.85A420.63,420.63,0,0,1,586.65,589a399.05,399.05,0,0,1-142.08,96.58,411,411,0,0,1-89,24.31,486.45,486.45,0,0,1-53.77,5.18,415.62,415.62,0,0,1-63.71-2,419.06,419.06,0,0,1-125.63-33.61,428.28,428.28,0,0,1-52.57-27.81C58.69,650.94,57.27,650.48,56.48,649Z" transform="translate(-56.48 -126.8)"/></g></svg>