<svg id="Ebene_1" data-name="Ebene 1" xmlns="http://www.w3.org/2000/svg" viewBox="0 0 880 880"><defs><style>.cls-1{fill:#999;}.cls-2{fill:#fff;}</style></defs><title>icon_mapsrc_companies</title><circle class="cls-1" cx="440" cy="440" r="440"/><g id="Companies"><path class="cls-2" d="M200,176V632H316V563h47v69H479V176H200Zm89,325H243V455h46v46Zm0-77H243V377h46v47Zm0-78H243V299h46v47Zm0-78H243V222h46v46Zm74,233H316V455h47v46Zm0-77H316V377h47v47Zm0-78H316V299h47v47Zm0-78H316V222h47v46Zm74,233H390V455h47v46Zm0-77H390V377h47v47Zm0-78H390V299h47v47Zm0-78H390V222h47v46Z" transform="translate(0 -0.16)"/><path class="cls-2" d="M497,333V632h76V587h31v45h76V333H497Zm58,213H525V516h30v30Zm0-51H525V465h30v30Zm0-51H525V413h30v31Zm0-51H525V363h30v30Zm49,153H573V516h31v30Zm0-51H573V465h31v30Zm0-51H573V413h31v31Zm0-51H573V363h31v30Zm49,153H622V516h31v30Zm0-51H622V465h31v30Zm0-51H622V413h31v31Zm0-51H622V363h31v30Z" transform="translate(0 -0.16)"/></g></svg>